<svg width="218" height="39" viewBox="0 0 218 39" fill="none" xmlns="http://www.w3.org/2000/svg">
<path fill-rule="evenodd" clip-rule="evenodd" d="M0.625 23.6843C0.625 31.3167 5.90786 37.4736 13.4553 37.4736C16.9772 37.4736 19.9961 35.8963 21.908 33.7591H22.0087V36.7103H30.8138V10.6074H21.908V13.1007C19.7948 11.0145 16.9269 9.84434 13.4553 9.84434C5.90786 9.84434 0.625 16.0519 0.625 23.6843ZM10.0841 23.6843C10.0841 20.0718 12.7508 17.5276 16.122 17.5276C19.4426 17.5276 22.1093 20.0718 22.1093 23.6843C22.1093 27.2462 19.5936 29.7903 16.122 29.7903C12.4992 29.7903 10.0841 27.2462 10.0841 23.6843ZM36.8515 36.7103H45.7573V21.9544C45.7573 19.3594 48.3737 16.8661 51.0404 16.8661C53.9083 16.8661 55.6693 19.3594 55.6693 21.9544V36.7103H64.5751V19.512C64.5751 12.2358 57.9837 9.84434 53.2542 9.84434C50.4365 9.84434 47.8705 11.3199 45.8579 13.3551H45.7573V10.6074H36.8515V36.7103ZM71.6191 10.6074H67.8957V17.4767H71.6191V27.5006C71.6191 32.1309 73.3297 37.4736 80.4243 37.4736C84.0971 37.4736 86.9651 35.8454 86.9651 35.8454L84.7513 28.569C84.7513 28.569 83.6946 29.3832 82.5375 29.3832C81.1285 29.3832 80.5249 28.213 80.5249 25.7705V17.4767H85.9587V10.6074H80.5249V0.888889H71.6191V10.6074ZM88.1224 23.6843C88.1224 31.3167 93.4055 37.4736 100.953 37.4736C104.475 37.4736 107.494 35.8963 109.405 33.7591H109.506V36.7103H118.311V10.6074H109.405V13.1007C107.292 11.0145 104.424 9.84434 100.953 9.84434C93.4055 9.84434 88.1224 16.0519 88.1224 23.6843ZM97.5816 23.6843C97.5816 20.0718 100.248 17.5276 103.619 17.5276C106.94 17.5276 109.607 20.0718 109.607 23.6843C109.607 27.2462 107.091 29.7903 103.619 29.7903C99.9967 29.7903 97.5816 27.2462 97.5816 23.6843ZM124.349 36.7103H133.255V22.9721C133.255 22.3106 133.909 17.6803 138.538 17.6803C141.506 17.6803 143.167 19.1049 143.167 19.1049L146.89 11.4725C146.89 11.4725 144.576 9.84434 141.255 9.84434C136.173 9.84434 133.355 14.3729 133.355 14.3729H133.255V10.6074H124.349V36.7103ZM175.519 24.9056C175.57 24.6003 175.57 24.0405 175.57 23.6843C175.57 14.5255 169.582 9.84434 161.733 9.84434C153.934 9.84434 147.544 16.0519 147.544 23.6843C147.544 31.2658 153.934 37.4736 161.733 37.4736C167.469 37.4736 172.198 35.591 175.117 30.6554L168.676 27.3988C166.513 29.7394 165.255 30.2992 162.387 30.2992C160.123 30.2992 156.802 28.9252 156.802 24.9056H175.519ZM157.054 19.9191C157.205 17.5276 158.915 15.6957 161.985 15.6957C164.601 15.6957 166.462 17.1714 166.865 19.9191H157.054ZM190.966 9.84434C184.173 9.84434 179.695 12.8971 179.695 18.2398C179.695 22.1579 182.312 23.9896 184.928 25.3636C187.846 26.89 190.664 27.0426 190.664 28.9252C190.664 30.6554 189.154 30.8081 187.897 30.8081C185.029 30.8081 181.507 27.8059 181.507 27.8059L177.884 33.9626C177.884 33.9626 181.607 37.4736 187.846 37.4736C193.129 37.4736 200.073 36.2523 200.073 28.569C200.073 23.2263 195.645 21.2928 192.224 20.2244C190.01 19.512 188.199 19.1049 188.199 17.7312C188.199 16.5099 189.004 16.1537 190.966 16.1537C193.683 16.1537 196.702 17.7821 196.702 17.7821L199.62 11.8796C199.62 11.8796 195.947 9.84434 190.966 9.84434Z" fill="#FBF1EC"/>
<path d="M211.796 20.7582C215.131 20.7582 217.834 18.0245 217.834 14.6522C217.834 11.28 215.131 8.54631 211.796 8.54631C208.462 8.54631 205.758 11.28 205.758 14.6522C205.758 18.0245 208.462 20.7582 211.796 20.7582Z" fill="#FFC12E"/>
<path d="M205.758 29.917C198.714 25.5162 208.464 23.8112 211.796 23.8112C215.129 23.8112 218.391 26.5945 217.834 29.917C217.331 32.9194 214.647 35.9471 209.784 39C210.612 35.1387 209.27 32.1111 205.758 29.917Z" fill="#FFC12E"/>
</svg>
